<svg width="167" height="162" viewBox="0 0 167 162" fill="none" xmlns="http://www.w3.org/2000/svg">
<ellipse cx="104.564" cy="145.327" rx="58.694" ry="16.3797" fill="#242429"/>
<path d="M16.2004 5.81982C16.2004 3.61068 17.9913 1.81982 20.2004 1.81982H36.2485L42.6469 9.866H92.0991C95.4128 9.866 98.0991 12.5523 98.0991 15.866V20.9295H16.2004V5.81982Z" fill="#36363D"/>
<mask id="path-3-inside-1" fill="white">
<path d="M14.3806 6C14.3806 2.6863 17.0669 0 20.3806 0H33.2062C35.1407 0 36.9567 0.932804 38.0834 2.50539L40.7525 6.23046C41.8793 7.80305 43.6952 8.73585 45.6297 8.73585H92.0992C95.4129 8.73585 98.0992 11.4221 98.0992 14.7359V20.5293V59.5189C98.0992 62.8326 95.4129 65.5189 92.0992 65.5189H20.3806C17.0669 65.5189 14.3806 62.8326 14.3806 59.5189V20.5293V6Z"/>
</mask>
<path d="M14.3806 21.5293H98.0992V19.5293H14.3806V21.5293ZM38.0834 2.50539L36.4577 3.67026L38.0834 2.50539ZM92.0992 63.5189H20.3806V67.5189H92.0992V63.5189ZM20.3806 2H33.2062V-2H20.3806V2ZM36.4577 3.67026L39.1267 7.39534L42.3782 5.06559L39.7092 1.34052L36.4577 3.67026ZM45.6297 10.7359H92.0992V6.73585H45.6297V10.7359ZM16.3806 59.5189V20.5293H12.3806V59.5189H16.3806ZM16.3806 20.5293V6H12.3806V20.5293H16.3806ZM96.0992 14.7359V20.5293H100.099V14.7359H96.0992ZM96.0992 20.5293V59.5189H100.099V20.5293H96.0992ZM39.1267 7.39534C40.6291 9.49211 43.0503 10.7359 45.6297 10.7359V6.73585C44.34 6.73585 43.1294 6.11398 42.3782 5.06559L39.1267 7.39534ZM33.2062 2C34.4959 2 35.7065 2.62187 36.4577 3.67026L39.7092 1.34052C38.2068 -0.756262 35.7856 -2 33.2062 -2V2ZM20.3806 63.5189C18.1715 63.5189 16.3806 61.728 16.3806 59.5189H12.3806C12.3806 63.9372 15.9623 67.5189 20.3806 67.5189V63.5189ZM92.0992 67.5189C96.5175 67.5189 100.099 63.9372 100.099 59.5189H96.0992C96.0992 61.728 94.3084 63.5189 92.0992 63.5189V67.5189ZM92.0992 10.7359C94.3084 10.7359 96.0992 12.5267 96.0992 14.7359H100.099C100.099 10.3176 96.5175 6.73585 92.0992 6.73585V10.7359ZM20.3806 -2C15.9623 -2 12.3806 1.58173 12.3806 6H16.3806C16.3806 3.79086 18.1715 2 20.3806 2V-2Z" fill="#606066" mask="url(#path-3-inside-1)"/>
<circle cx="98.6491" cy="77.9885" r="38.1293" fill="#19181C" stroke="#606066" stroke-width="2"/>
<circle cx="98.649" cy="77.9886" r="29.9395" fill="#2D2D33" stroke="#606066" stroke-width="2"/>
<rect x="125.831" y="113.941" width="12.5598" height="43.1729" rx="6.27988" transform="rotate(-43.6363 125.831 113.941)" fill="#19181C" stroke="#606066" stroke-width="2"/>
<path d="M127.615 103.532L132.8 108.717" stroke="#606066" stroke-width="2"/>
<path d="M123.844 107.303L129.029 112.488" stroke="#606066" stroke-width="2"/>
<mask id="path-10-inside-2" fill="white">
<path d="M13.4986 89.2262C14.0493 87.6147 15.8295 86.7842 17.4182 87.3977L36.1613 94.6358L41.2903 107.645L32.3997 133.671C31.8603 135.25 30.1359 136.085 28.5623 135.53L3.80087 126.79C2.24953 126.243 1.42855 124.548 1.96052 122.991L13.4986 89.2262Z"/>
</mask>
<path d="M32.7038 104.276L31.7626 103.938L31.4348 104.852L32.3386 105.207L32.7038 104.276ZM35.2201 94.2982L31.7626 103.938L33.6451 104.613L37.1026 94.9735L35.2201 94.2982ZM32.3386 105.207L40.925 108.576L41.6555 106.714L33.0691 103.345L32.3386 105.207ZM41.2903 107.645L43.1829 108.292L43.4206 107.596L43.1509 106.911L41.2903 107.645ZM36.1613 94.6358L38.022 93.9023L37.7002 93.0862L36.8818 92.7701L36.1613 94.6358ZM3.80087 126.79L3.13521 128.676L3.80087 126.79ZM28.5623 135.53L29.2279 133.644L28.5623 135.53ZM32.3997 133.671L30.5071 133.024L32.3997 133.671ZM29.2279 133.644L4.46652 124.904L3.13521 128.676L27.8966 137.416L29.2279 133.644ZM3.85307 123.638L15.3912 89.8729L11.6061 88.5795L0.0679642 122.345L3.85307 123.638ZM39.3976 106.998L30.5071 133.024L34.2923 134.317L43.1829 108.292L39.3976 106.998ZM16.6977 89.2634L35.4409 96.5016L36.8818 92.7701L18.1387 85.532L16.6977 89.2634ZM34.3007 95.3694L39.4296 108.379L43.1509 106.911L38.022 93.9023L34.3007 95.3694ZM4.46652 124.904C3.94941 124.722 3.67575 124.157 3.85307 123.638L0.0679642 122.345C-0.818642 124.939 0.549659 127.764 3.13521 128.676L4.46652 124.904ZM27.8966 137.416C30.5193 138.342 33.3932 136.949 34.2923 134.317L30.5071 133.024C30.3273 133.551 29.7525 133.829 29.2279 133.644L27.8966 137.416ZM15.3912 89.8729C15.5748 89.3357 16.1682 89.0589 16.6977 89.2634L18.1387 85.532C15.4909 84.5095 12.5239 85.8936 11.6061 88.5795L15.3912 89.8729Z" fill="#606066" mask="url(#path-10-inside-2)"/>
<path d="M14.937 105L31.9407 110.905" stroke="#606066" stroke-width="2" stroke-linecap="round"/>
<path d="M12.9685 110.668L29.9722 116.573" stroke="#606066" stroke-width="2" stroke-linecap="round"/>
<path d="M11 116.336L28.0037 122.241" stroke="#606066" stroke-width="2" stroke-linecap="round"/>
</svg>
