<svg width="150" height="64" viewBox="0 0 150 64" fill="none" xmlns="http://www.w3.org/2000/svg">
<ellipse cx="75" cy="53.5" rx="75" ry="10.5" fill="#36363D"/>
<path d="M16 19H132V47C132 50.3137 129.314 53 126 53H22C18.6863 53 16 50.3137 16 47V19Z" fill="#404047"/>
<path d="M17 18.8202H132M17 18.8202V46.8202C17 50.1339 19.6863 52.8202 23 52.8202H126C129.314 52.8202 132 50.1339 132 46.8202V18.8202M17 18.8202L28.3161 1H119L132 18.8202" stroke="#606066" stroke-width="2" stroke-linecap="square"/>
<path d="M57 29.5C57 27.567 58.567 26 60.5 26H87.5C89.433 26 91 27.567 91 29.5C91 31.433 89.433 33 87.5 33H60.5C58.567 33 57 31.433 57 29.5Z" fill="#2D2C32" stroke="#606066" stroke-width="2"/>
<rect x="62" y="6" width="25" height="5" rx="2.5" fill="#2D2C32" stroke="#606066" stroke-width="2"/>
<line x1="29" y1="1" x2="29" y2="19" stroke="#606066" stroke-width="2"/>
<line x1="119" y1="1" x2="119" y2="19" stroke="#606066" stroke-width="2"/>
</svg>
