<svg width="24" height="24" viewBox="0 0 24 24" fill="none" xmlns="http://www.w3.org/2000/svg">
<path d="M11.9999 5.23712C10.9186 5.23712 10.042 4.28861 10.042 3.11856C10.042 1.94851 10.9186 1 11.9999 1C13.0812 1 13.9578 1.94851 13.9578 3.11856C13.9578 4.28861 13.0812 5.23712 11.9999 5.23712Z" fill="white"/>
<path d="M4.95791 23.068C3.87659 23.068 3 22.1195 3 20.9494C3 19.7794 3.87659 18.8309 4.95791 18.8309C6.03923 18.8309 6.91582 19.7794 6.91582 20.9494C6.91582 22.1195 6.03923 23.068 4.95791 23.068Z" fill="white"/>
<path d="M19.0419 23.068C17.9606 23.068 17.084 22.1195 17.084 20.9494C17.084 19.7794 17.9606 18.8309 19.0419 18.8309C20.1232 18.8309 20.9998 19.7794 20.9998 20.9494C20.9998 22.1195 20.1232 23.068 19.0419 23.068Z" fill="white"/>
<path d="M7.49006 16.9745C7.28508 17.5159 6.71333 17.7749 6.21304 17.5531C5.71274 17.3313 5.47334 16.7127 5.67833 16.1713L9.13646 7.03864C9.34144 6.49729 9.91318 6.23825 10.4135 6.46005C10.9138 6.68186 11.1532 7.30051 10.9482 7.84186L7.49006 16.9745Z" fill="white"/>
<path d="M16.4846 16.9745L13.0265 7.84186C12.8215 7.30051 13.0609 6.68186 13.5612 6.46005C14.0615 6.23825 14.6332 6.49729 14.8382 7.03864L18.2963 16.1713C18.5013 16.7127 18.2619 17.3313 17.7616 17.5531C17.2613 17.7749 16.6896 17.5159 16.4846 16.9745Z" fill="white"/>
<path d="M9.40034 22.0087C8.85968 22.0087 8.42139 21.5345 8.42139 20.9494C8.42139 20.3644 8.85968 19.8902 9.40034 19.8902H14.876C15.4167 19.8902 15.855 20.3644 15.855 20.9494C15.855 21.5345 15.4167 22.0087 14.876 22.0087H9.40034Z" fill="white"/>
</svg>
